<?xml version="1.0" standalone="no"?>
<svg xmlns="http://www.w3.org/2000/svg" width="300" height="300"><defs><clipPath id="clip-path-dot-color"><circle cx="10" cy="120" r="5" transform="rotate(0,10,120)"/><circle cx="10" cy="140" r="5" transform="rotate(0,10,140)"/><circle cx="10" cy="170" r="5" transform="rotate(0,10,170)"/><circle cx="10" cy="200" r="5" transform="rotate(0,10,200)"/><circle cx="10" cy="210" r="5" transform="rotate(0,10,210)"/><circle cx="20" cy="90" r="5" transform="rotate(0,20,90)"/><circle cx="20" cy="110" r="5" transform="rotate(0,20,110)"/><circle cx="20" cy="120" r="5" transform="rotate(0,20,120)"/><circle cx="20" cy="140" r="5" transform="rotate(0,20,140)"/><circle cx="20" cy="150" r="5" transform="rotate(0,20,150)"/><circle cx="20" cy="160" r="5" transform="rotate(0,20,160)"/><circle cx="20" cy="170" r="5" transform="rotate(0,20,170)"/><circle cx="20" cy="180" r="5" transform="rotate(0,20,180)"/><circle cx="20" cy="200" r="5" transform="rotate(0,20,200)"/><circle cx="30" cy="100" r="5" transform="rotate(0,30,100)"/><circle cx="30" cy="130" r="5" transform="rotate(0,30,130)"/><circle cx="30" cy="140" r="5" transform="rotate(0,30,140)"/><circle cx="30" cy="150" r="5" transform="rotate(0,30,150)"/><circle cx="30" cy="160" r="5" transform="rotate(0,30,160)"/><circle cx="30" cy="200" r="5" transform="rotate(0,30,200)"/><circle cx="40" cy="90" r="5" transform="rotate(0,40,90)"/><circle cx="40" cy="100" r="5" transform="rotate(0,40,100)"/><circle cx="40" cy="110" r="5" transform="rotate(0,40,110)"/><circle cx="40" cy="140" r="5" transform="rotate(0,40,140)"/><circle cx="40" cy="150" r="5" transform="rotate(0,40,150)"/><circle cx="40" cy="160" r="5" transform="rotate(0,40,160)"/><circle cx="40" cy="170" r="5" transform="rotate(0,40,170)"/><circle cx="40" cy="180" r="5" transform="rotate(0,40,180)"/><circle cx="40" cy="210" r="5" transform="rotate(0,40,210)"/><circle cx="50" cy="90" r="5" transform="rotate(0,50,90)"/><circle cx="50" cy="120" r="5" transform="rotate(0,50,120)"/><circle cx="50" cy="150" r="5" transform="rotate(0,50,150)"/><circle cx="50" cy="170" r="5" transform="rotate(0,50,170)"/><circle cx="50" cy="200" r="5" transform="rotate(0,50,200)"/><circle cx="60" cy="120" r="5" transform="rotate(0,60,120)"/><circle cx="60" cy="170" r="5" transform="rotate(0,60,170)"/><circle cx="70" cy="90" r="5" transform="rotate(0,70,90)"/><circle cx="70" cy="110" r="5" transform="rotate(0,70,110)"/><circle cx="70" cy="130" r="5" transform="rotate(0,70,130)"/><circle cx="70" cy="150" r="5" transform="rotate(0,70,150)"/><circle cx="70" cy="170" r="5" transform="rotate(0,70,170)"/><circle cx="70" cy="190" r="5" transform="rotate(0,70,190)"/><circle cx="70" cy="210" r="5" transform="rotate(0,70,210)"/><circle cx="80" cy="90" r="5" transform="rotate(0,80,90)"/><circle cx="80" cy="100" r="5" transform="rotate(0,80,100)"/><circle cx="80" cy="150" r="5" transform="rotate(0,80,150)"/><circle cx="80" cy="170" r="5" transform="rotate(0,80,170)"/><circle cx="80" cy="180" r="5" transform="rotate(0,80,180)"/><circle cx="80" cy="190" r="5" transform="rotate(0,80,190)"/><circle cx="80" cy="200" r="5" transform="rotate(0,80,200)"/><circle cx="90" cy="20" r="5" transform="rotate(0,90,20)"/><circle cx="90" cy="40" r="5" transform="rotate(0,90,40)"/><circle cx="90" cy="50" r="5" transform="rotate(0,90,50)"/><circle cx="90" cy="60" r="5" transform="rotate(0,90,60)"/><circle cx="90" cy="70" r="5" transform="rotate(0,90,70)"/><circle cx="90" cy="90" r="5" transform="rotate(0,90,90)"/><circle cx="90" cy="140" r="5" transform="rotate(0,90,140)"/><circle cx="90" cy="150" r="5" transform="rotate(0,90,150)"/><circle cx="90" cy="220" r="5" transform="rotate(0,90,220)"/><circle cx="90" cy="230" r="5" transform="rotate(0,90,230)"/><circle cx="90" cy="250" r="5" transform="rotate(0,90,250)"/><circle cx="90" cy="260" r="5" transform="rotate(0,90,260)"/><circle cx="90" cy="280" r="5" transform="rotate(0,90,280)"/><circle cx="100" cy="20" r="5" transform="rotate(0,100,20)"/><circle cx="100" cy="30" r="5" transform="rotate(0,100,30)"/><circle cx="100" cy="40" r="5" transform="rotate(0,100,40)"/><circle cx="100" cy="60" r="5" transform="rotate(0,100,60)"/><circle cx="100" cy="80" r="5" transform="rotate(0,100,80)"/><circle cx="100" cy="120" r="5" transform="rotate(0,100,120)"/><circle cx="100" cy="190" r="5" transform="rotate(0,100,190)"/><circle cx="100" cy="240" r="5" transform="rotate(0,100,240)"/><circle cx="100" cy="250" r="5" transform="rotate(0,100,250)"/><circle cx="100" cy="260" r="5" transform="rotate(0,100,260)"/><circle cx="100" cy="280" r="5" transform="rotate(0,100,280)"/><circle cx="110" cy="10" r="5" transform="rotate(0,110,10)"/><circle cx="110" cy="30" r="5" transform="rotate(0,110,30)"/><circle cx="110" cy="40" r="5" transform="rotate(0,110,40)"/><circle cx="110" cy="50" r="5" transform="rotate(0,110,50)"/><circle cx="110" cy="60" r="5" transform="rotate(0,110,60)"/><circle cx="110" cy="70" r="5" transform="rotate(0,110,70)"/><circle cx="110" cy="80" r="5" transform="rotate(0,110,80)"/><circle cx="110" cy="90" r="5" transform="rotate(0,110,90)"/><circle cx="110" cy="100" r="5" transform="rotate(0,110,100)"/><circle cx="110" cy="110" r="5" transform="rotate(0,110,110)"/><circle cx="110" cy="120" r="5" transform="rotate(0,110,120)"/><circle cx="110" cy="180" r="5" transform="rotate(0,110,180)"/><circle cx="110" cy="200" r="5" transform="rotate(0,110,200)"/><circle cx="110" cy="210" r="5" transform="rotate(0,110,210)"/><circle cx="110" cy="220" r="5" transform="rotate(0,110,220)"/><circle cx="110" cy="230" r="5" transform="rotate(0,110,230)"/><circle cx="110" cy="260" r="5" transform="rotate(0,110,260)"/><circle cx="120" cy="10" r="5" transform="rotate(0,120,10)"/><circle cx="120" cy="20" r="5" transform="rotate(0,120,20)"/><circle cx="120" cy="30" r="5" transform="rotate(0,120,30)"/><circle cx="120" cy="40" r="5" transform="rotate(0,120,40)"/><circle cx="120" cy="80" r="5" transform="rotate(0,120,80)"/><circle cx="120" cy="110" r="5" transform="rotate(0,120,110)"/><circle cx="120" cy="130" r="5" transform="rotate(0,120,130)"/><circle cx="120" cy="150" r="5" transform="rotate(0,120,150)"/><circle cx="120" cy="160" r="5" transform="rotate(0,120,160)"/><circle cx="120" cy="170" r="5" transform="rotate(0,120,170)"/><circle cx="120" cy="180" r="5" transform="rotate(0,120,180)"/><circle cx="120" cy="200" r="5" transform="rotate(0,120,200)"/><circle cx="120" cy="210" r="5" transform="rotate(0,120,210)"/><circle cx="120" cy="250" r="5" transform="rotate(0,120,250)"/><circle cx="120" cy="260" r="5" transform="rotate(0,120,260)"/><circle cx="120" cy="290" r="5" transform="rotate(0,120,290)"/><circle cx="130" cy="20" r="5" transform="rotate(0,130,20)"/><circle cx="130" cy="40" r="5" transform="rotate(0,130,40)"/><circle cx="130" cy="50" r="5" transform="rotate(0,130,50)"/><circle cx="130" cy="60" r="5" transform="rotate(0,130,60)"/><circle cx="130" cy="70" r="5" transform="rotate(0,130,70)"/><circle cx="130" cy="80" r="5" transform="rotate(0,130,80)"/><circle cx="130" cy="90" r="5" transform="rotate(0,130,90)"/><circle cx="130" cy="100" r="5" transform="rotate(0,130,100)"/><circle cx="130" cy="150" r="5" transform="rotate(0,130,150)"/><circle cx="130" cy="170" r="5" transform="rotate(0,130,170)"/><circle cx="130" cy="210" r="5" transform="rotate(0,130,210)"/><circle cx="130" cy="220" r="5" transform="rotate(0,130,220)"/><circle cx="130" cy="230" r="5" transform="rotate(0,130,230)"/><circle cx="130" cy="280" r="5" transform="rotate(0,130,280)"/><circle cx="140" cy="90" r="5" transform="rotate(0,140,90)"/><circle cx="140" cy="100" r="5" transform="rotate(0,140,100)"/><circle cx="140" cy="120" r="5" transform="rotate(0,140,120)"/><circle cx="140" cy="130" r="5" transform="rotate(0,140,130)"/><circle cx="140" cy="140" r="5" transform="rotate(0,140,140)"/><circle cx="140" cy="160" r="5" transform="rotate(0,140,160)"/><circle cx="140" cy="170" r="5" transform="rotate(0,140,170)"/><circle cx="140" cy="190" r="5" transform="rotate(0,140,190)"/><circle cx="140" cy="230" r="5" transform="rotate(0,140,230)"/><circle cx="140" cy="250" r="5" transform="rotate(0,140,250)"/><circle cx="140" cy="270" r="5" transform="rotate(0,140,270)"/><circle cx="140" cy="290" r="5" transform="rotate(0,140,290)"/><circle cx="150" cy="10" r="5" transform="rotate(0,150,10)"/><circle cx="150" cy="20" r="5" transform="rotate(0,150,20)"/><circle cx="150" cy="40" r="5" transform="rotate(0,150,40)"/><circle cx="150" cy="60" r="5" transform="rotate(0,150,60)"/><circle cx="150" cy="70" r="5" transform="rotate(0,150,70)"/><circle cx="150" cy="120" r="5" transform="rotate(0,150,120)"/><circle cx="150" cy="130" r="5" transform="rotate(0,150,130)"/><circle cx="150" cy="140" r="5" transform="rotate(0,150,140)"/><circle cx="150" cy="150" r="5" transform="rotate(0,150,150)"/><circle cx="150" cy="160" r="5" transform="rotate(0,150,160)"/><circle cx="150" cy="190" r="5" transform="rotate(0,150,190)"/><circle cx="150" cy="200" r="5" transform="rotate(0,150,200)"/><circle cx="150" cy="210" r="5" transform="rotate(0,150,210)"/><circle cx="150" cy="240" r="5" transform="rotate(0,150,240)"/><circle cx="150" cy="260" r="5" transform="rotate(0,150,260)"/><circle cx="150" cy="290" r="5" transform="rotate(0,150,290)"/><circle cx="160" cy="10" r="5" transform="rotate(0,160,10)"/><circle cx="160" cy="20" r="5" transform="rotate(0,160,20)"/><circle cx="160" cy="40" r="5" transform="rotate(0,160,40)"/><circle cx="160" cy="50" r="5" transform="rotate(0,160,50)"/><circle cx="160" cy="60" r="5" transform="rotate(0,160,60)"/><circle cx="160" cy="90" r="5" transform="rotate(0,160,90)"/><circle cx="160" cy="100" r="5" transform="rotate(0,160,100)"/><circle cx="160" cy="110" r="5" transform="rotate(0,160,110)"/><circle cx="160" cy="160" r="5" transform="rotate(0,160,160)"/><circle cx="160" cy="170" r="5" transform="rotate(0,160,170)"/><circle cx="160" cy="200" r="5" transform="rotate(0,160,200)"/><circle cx="160" cy="210" r="5" transform="rotate(0,160,210)"/><circle cx="160" cy="220" r="5" transform="rotate(0,160,220)"/><circle cx="160" cy="250" r="5" transform="rotate(0,160,250)"/><circle cx="160" cy="260" r="5" transform="rotate(0,160,260)"/><circle cx="160" cy="270" r="5" transform="rotate(0,160,270)"/><circle cx="160" cy="290" r="5" transform="rotate(0,160,290)"/><circle cx="170" cy="10" r="5" transform="rotate(0,170,10)"/><circle cx="170" cy="30" r="5" transform="rotate(0,170,30)"/><circle cx="170" cy="70" r="5" transform="rotate(0,170,70)"/><circle cx="170" cy="80" r="5" transform="rotate(0,170,80)"/><circle cx="170" cy="90" r="5" transform="rotate(0,170,90)"/><circle cx="170" cy="110" r="5" transform="rotate(0,170,110)"/><circle cx="170" cy="140" r="5" transform="rotate(0,170,140)"/><circle cx="170" cy="180" r="5" transform="rotate(0,170,180)"/><circle cx="170" cy="190" r="5" transform="rotate(0,170,190)"/><circle cx="170" cy="210" r="5" transform="rotate(0,170,210)"/><circle cx="170" cy="260" r="5" transform="rotate(0,170,260)"/><circle cx="180" cy="10" r="5" transform="rotate(0,180,10)"/><circle cx="180" cy="20" r="5" transform="rotate(0,180,20)"/><circle cx="180" cy="30" r="5" transform="rotate(0,180,30)"/><circle cx="180" cy="60" r="5" transform="rotate(0,180,60)"/><circle cx="180" cy="80" r="5" transform="rotate(0,180,80)"/><circle cx="180" cy="90" r="5" transform="rotate(0,180,90)"/><circle cx="180" cy="100" r="5" transform="rotate(0,180,100)"/><circle cx="180" cy="110" r="5" transform="rotate(0,180,110)"/><circle cx="180" cy="180" r="5" transform="rotate(0,180,180)"/><circle cx="180" cy="220" r="5" transform="rotate(0,180,220)"/><circle cx="180" cy="250" r="5" transform="rotate(0,180,250)"/><circle cx="190" cy="10" r="5" transform="rotate(0,190,10)"/><circle cx="190" cy="20" r="5" transform="rotate(0,190,20)"/><circle cx="190" cy="50" r="5" transform="rotate(0,190,50)"/><circle cx="190" cy="70" r="5" transform="rotate(0,190,70)"/><circle cx="190" cy="90" r="5" transform="rotate(0,190,90)"/><circle cx="190" cy="120" r="5" transform="rotate(0,190,120)"/><circle cx="190" cy="150" r="5" transform="rotate(0,190,150)"/><circle cx="190" cy="170" r="5" transform="rotate(0,190,170)"/><circle cx="190" cy="180" r="5" transform="rotate(0,190,180)"/><circle cx="190" cy="200" r="5" transform="rotate(0,190,200)"/><circle cx="190" cy="240" r="5" transform="rotate(0,190,240)"/><circle cx="190" cy="260" r="5" transform="rotate(0,190,260)"/><circle cx="190" cy="290" r="5" transform="rotate(0,190,290)"/><circle cx="200" cy="10" r="5" transform="rotate(0,200,10)"/><circle cx="200" cy="20" r="5" transform="rotate(0,200,20)"/><circle cx="200" cy="30" r="5" transform="rotate(0,200,30)"/><circle cx="200" cy="40" r="5" transform="rotate(0,200,40)"/><circle cx="200" cy="100" r="5" transform="rotate(0,200,100)"/><circle cx="200" cy="120" r="5" transform="rotate(0,200,120)"/><circle cx="200" cy="160" r="5" transform="rotate(0,200,160)"/><circle cx="200" cy="170" r="5" transform="rotate(0,200,170)"/><circle cx="200" cy="190" r="5" transform="rotate(0,200,190)"/><circle cx="200" cy="210" r="5" transform="rotate(0,200,210)"/><circle cx="200" cy="220" r="5" transform="rotate(0,200,220)"/><circle cx="200" cy="230" r="5" transform="rotate(0,200,230)"/><circle cx="200" cy="240" r="5" transform="rotate(0,200,240)"/><circle cx="200" cy="270" r="5" transform="rotate(0,200,270)"/><circle cx="200" cy="280" r="5" transform="rotate(0,200,280)"/><circle cx="210" cy="10" r="5" transform="rotate(0,210,10)"/><circle cx="210" cy="20" r="5" transform="rotate(0,210,20)"/><circle cx="210" cy="40" r="5" transform="rotate(0,210,40)"/><circle cx="210" cy="50" r="5" transform="rotate(0,210,50)"/><circle cx="210" cy="60" r="5" transform="rotate(0,210,60)"/><circle cx="210" cy="70" r="5" transform="rotate(0,210,70)"/><circle cx="210" cy="80" r="5" transform="rotate(0,210,80)"/><circle cx="210" cy="120" r="5" transform="rotate(0,210,120)"/><circle cx="210" cy="140" r="5" transform="rotate(0,210,140)"/><circle cx="210" cy="170" r="5" transform="rotate(0,210,170)"/><circle cx="210" cy="180" r="5" transform="rotate(0,210,180)"/><circle cx="210" cy="210" r="5" transform="rotate(0,210,210)"/><circle cx="210" cy="220" r="5" transform="rotate(0,210,220)"/><circle cx="210" cy="230" r="5" transform="rotate(0,210,230)"/><circle cx="210" cy="240" r="5" transform="rotate(0,210,240)"/><circle cx="210" cy="250" r="5" transform="rotate(0,210,250)"/><circle cx="210" cy="270" r="5" transform="rotate(0,210,270)"/><circle cx="210" cy="280" r="5" transform="rotate(0,210,280)"/><circle cx="220" cy="90" r="5" transform="rotate(0,220,90)"/><circle cx="220" cy="100" r="5" transform="rotate(0,220,100)"/><circle cx="220" cy="110" r="5" transform="rotate(0,220,110)"/><circle cx="220" cy="130" r="5" transform="rotate(0,220,130)"/><circle cx="220" cy="140" r="5" transform="rotate(0,220,140)"/><circle cx="220" cy="150" r="5" transform="rotate(0,220,150)"/><circle cx="220" cy="160" r="5" transform="rotate(0,220,160)"/><circle cx="220" cy="180" r="5" transform="rotate(0,220,180)"/><circle cx="220" cy="190" r="5" transform="rotate(0,220,190)"/><circle cx="220" cy="210" r="5" transform="rotate(0,220,210)"/><circle cx="220" cy="250" r="5" transform="rotate(0,220,250)"/><circle cx="220" cy="260" r="5" transform="rotate(0,220,260)"/><circle cx="220" cy="270" r="5" transform="rotate(0,220,270)"/><circle cx="220" cy="280" r="5" transform="rotate(0,220,280)"/><circle cx="230" cy="110" r="5" transform="rotate(0,230,110)"/><circle cx="230" cy="120" r="5" transform="rotate(0,230,120)"/><circle cx="230" cy="140" r="5" transform="rotate(0,230,140)"/><circle cx="230" cy="160" r="5" transform="rotate(0,230,160)"/><circle cx="230" cy="170" r="5" transform="rotate(0,230,170)"/><circle cx="230" cy="200" r="5" transform="rotate(0,230,200)"/><circle cx="230" cy="210" r="5" transform="rotate(0,230,210)"/><circle cx="230" cy="230" r="5" transform="rotate(0,230,230)"/><circle cx="230" cy="250" r="5" transform="rotate(0,230,250)"/><circle cx="230" cy="270" r="5" transform="rotate(0,230,270)"/><circle cx="240" cy="90" r="5" transform="rotate(0,240,90)"/><circle cx="240" cy="100" r="5" transform="rotate(0,240,100)"/><circle cx="240" cy="110" r="5" transform="rotate(0,240,110)"/><circle cx="240" cy="120" r="5" transform="rotate(0,240,120)"/><circle cx="240" cy="130" r="5" transform="rotate(0,240,130)"/><circle cx="240" cy="140" r="5" transform="rotate(0,240,140)"/><circle cx="240" cy="150" r="5" transform="rotate(0,240,150)"/><circle cx="240" cy="170" r="5" transform="rotate(0,240,170)"/><circle cx="240" cy="190" r="5" transform="rotate(0,240,190)"/><circle cx="240" cy="200" r="5" transform="rotate(0,240,200)"/><circle cx="240" cy="210" r="5" transform="rotate(0,240,210)"/><circle cx="240" cy="250" r="5" transform="rotate(0,240,250)"/><circle cx="240" cy="260" r="5" transform="rotate(0,240,260)"/><circle cx="240" cy="280" r="5" transform="rotate(0,240,280)"/><circle cx="250" cy="90" r="5" transform="rotate(0,250,90)"/><circle cx="250" cy="100" r="5" transform="rotate(0,250,100)"/><circle cx="250" cy="110" r="5" transform="rotate(0,250,110)"/><circle cx="250" cy="120" r="5" transform="rotate(0,250,120)"/><circle cx="250" cy="150" r="5" transform="rotate(0,250,150)"/><circle cx="250" cy="160" r="5" transform="rotate(0,250,160)"/><circle cx="250" cy="180" r="5" transform="rotate(0,250,180)"/><circle cx="250" cy="200" r="5" transform="rotate(0,250,200)"/><circle cx="250" cy="210" r="5" transform="rotate(0,250,210)"/><circle cx="250" cy="220" r="5" transform="rotate(0,250,220)"/><circle cx="250" cy="230" r="5" transform="rotate(0,250,230)"/><circle cx="250" cy="240" r="5" transform="rotate(0,250,240)"/><circle cx="250" cy="250" r="5" transform="rotate(0,250,250)"/><circle cx="250" cy="280" r="5" transform="rotate(0,250,280)"/><circle cx="250" cy="290" r="5" transform="rotate(0,250,290)"/><circle cx="260" cy="90" r="5" transform="rotate(0,260,90)"/><circle cx="260" cy="120" r="5" transform="rotate(0,260,120)"/><circle cx="260" cy="130" r="5" transform="rotate(0,260,130)"/><circle cx="260" cy="140" r="5" transform="rotate(0,260,140)"/><circle cx="260" cy="150" r="5" transform="rotate(0,260,150)"/><circle cx="260" cy="190" r="5" transform="rotate(0,260,190)"/><circle cx="260" cy="240" r="5" transform="rotate(0,260,240)"/><circle cx="260" cy="260" r="5" transform="rotate(0,260,260)"/><circle cx="260" cy="280" r="5" transform="rotate(0,260,280)"/><circle cx="270" cy="120" r="5" transform="rotate(0,270,120)"/><circle cx="270" cy="130" r="5" transform="rotate(0,270,130)"/><circle cx="270" cy="160" r="5" transform="rotate(0,270,160)"/><circle cx="270" cy="180" r="5" transform="rotate(0,270,180)"/><circle cx="270" cy="210" r="5" transform="rotate(0,270,210)"/><circle cx="270" cy="220" r="5" transform="rotate(0,270,220)"/><circle cx="270" cy="240" r="5" transform="rotate(0,270,240)"/><circle cx="270" cy="250" r="5" transform="rotate(0,270,250)"/><circle cx="270" cy="280" r="5" transform="rotate(0,270,280)"/><circle cx="270" cy="290" r="5" transform="rotate(0,270,290)"/><circle cx="280" cy="90" r="5" transform="rotate(0,280,90)"/><circle cx="280" cy="130" r="5" transform="rotate(0,280,130)"/><circle cx="280" cy="140" r="5" transform="rotate(0,280,140)"/><circle cx="280" cy="150" r="5" transform="rotate(0,280,150)"/><circle cx="280" cy="170" r="5" transform="rotate(0,280,170)"/><circle cx="280" cy="190" r="5" transform="rotate(0,280,190)"/><circle cx="280" cy="230" r="5" transform="rotate(0,280,230)"/><circle cx="280" cy="250" r="5" transform="rotate(0,280,250)"/><circle cx="280" cy="270" r="5" transform="rotate(0,280,270)"/><circle cx="280" cy="290" r="5" transform="rotate(0,280,290)"/><circle cx="290" cy="110" r="5" transform="rotate(0,290,110)"/><circle cx="290" cy="130" r="5" transform="rotate(0,290,130)"/><circle cx="290" cy="140" r="5" transform="rotate(0,290,140)"/><circle cx="290" cy="150" r="5" transform="rotate(0,290,150)"/><circle cx="290" cy="160" r="5" transform="rotate(0,290,160)"/><circle cx="290" cy="200" r="5" transform="rotate(0,290,200)"/><circle cx="290" cy="210" r="5" transform="rotate(0,290,210)"/><circle cx="290" cy="220" r="5" transform="rotate(0,290,220)"/><circle cx="290" cy="230" r="5" transform="rotate(0,290,230)"/><circle cx="290" cy="240" r="5" transform="rotate(0,290,240)"/><circle cx="290" cy="250" r="5" transform="rotate(0,290,250)"/><path clip-rule="evenodd" d="M 5 30v 20a 25 25, 0, 0, 0, 25 25h 20a 25 25, 0, 0, 0, 25 -25v -20a 25 25, 0, 0, 0, -25 -25h -20a 25 25, 0, 0, 0, -25 25M 30 15h 20a 15 15, 0, 0, 1, 15 15v 20a 15 15, 0, 0, 1, -15 15h -20a 15 15, 0, 0, 1, -15 -15v -20a 15 15, 0, 0, 1, 15 -15" transform="rotate(0,40,40)"/><circle cx="30" cy="30" r="5" transform="rotate(0,30,30)"/><circle cx="30" cy="40" r="5" transform="rotate(0,30,40)"/><circle cx="30" cy="50" r="5" transform="rotate(0,30,50)"/><circle cx="40" cy="30" r="5" transform="rotate(0,40,30)"/><circle cx="40" cy="40" r="5" transform="rotate(0,40,40)"/><circle cx="40" cy="50" r="5" transform="rotate(0,40,50)"/><circle cx="50" cy="30" r="5" transform="rotate(0,50,30)"/><circle cx="50" cy="40" r="5" transform="rotate(0,50,40)"/><circle cx="50" cy="50" r="5" transform="rotate(0,50,50)"/><path clip-rule="evenodd" d="M 225 30v 20a 25 25, 0, 0, 0, 25 25h 20a 25 25, 0, 0, 0, 25 -25v -20a 25 25, 0, 0, 0, -25 -25h -20a 25 25, 0, 0, 0, -25 25M 250 15h 20a 15 15, 0, 0, 1, 15 15v 20a 15 15, 0, 0, 1, -15 15h -20a 15 15, 0, 0, 1, -15 -15v -20a 15 15, 0, 0, 1, 15 -15" transform="rotate(90,260,40)"/><circle cx="250" cy="30" r="5" transform="rotate(0,250,30)"/><circle cx="250" cy="40" r="5" transform="rotate(0,250,40)"/><circle cx="250" cy="50" r="5" transform="rotate(0,250,50)"/><circle cx="260" cy="30" r="5" transform="rotate(0,260,30)"/><circle cx="260" cy="40" r="5" transform="rotate(0,260,40)"/><circle cx="260" cy="50" r="5" transform="rotate(0,260,50)"/><circle cx="270" cy="30" r="5" transform="rotate(0,270,30)"/><circle cx="270" cy="40" r="5" transform="rotate(0,270,40)"/><circle cx="270" cy="50" r="5" transform="rotate(0,270,50)"/><path clip-rule="evenodd" d="M 5 250v 20a 25 25, 0, 0, 0, 25 25h 20a 25 25, 0, 0, 0, 25 -25v -20a 25 25, 0, 0, 0, -25 -25h -20a 25 25, 0, 0, 0, -25 25M 30 235h 20a 15 15, 0, 0, 1, 15 15v 20a 15 15, 0, 0, 1, -15 15h -20a 15 15, 0, 0, 1, -15 -15v -20a 15 15, 0, 0, 1, 15 -15" transform="rotate(-90,40,260)"/><circle cx="30" cy="250" r="5" transform="rotate(0,30,250)"/><circle cx="30" cy="260" r="5" transform="rotate(0,30,260)"/><circle cx="30" cy="270" r="5" transform="rotate(0,30,270)"/><circle cx="40" cy="250" r="5" transform="rotate(0,40,250)"/><circle cx="40" cy="260" r="5" transform="rotate(0,40,260)"/><circle cx="40" cy="270" r="5" transform="rotate(0,40,270)"/><circle cx="50" cy="250" r="5" transform="rotate(0,50,250)"/><circle cx="50" cy="260" r="5" transform="rotate(0,50,260)"/><circle cx="50" cy="270" r="5" transform="rotate(0,50,270)"/></clipPath></defs><rect x="0" y="0" height="300" width="300" clip-path="url('#clip-path-background-color')" fill="#fff"/><rect x="0" y="0" height="300" width="300" clip-path="url('#clip-path-dot-color')" fill="#000000"/></svg>